<svg width="44" height="61" viewBox="0 0 44 61" fill="none" xmlns="http://www.w3.org/2000/svg">
<rect width="44" height="44" rx="22" fill="#23AA49"/>
<g filter="url(#filter0_d_1_326)">
<rect x="13" y="34" width="18" height="18" rx="9" fill="#FF324B"/>
<rect x="13.5" y="34.5" width="17" height="17" rx="8.5" stroke="white"/>
</g>
<path d="M22.46 48V46.04H17.546V44.864L22.222 38.2H23.93V44.752H25.302V46.04H23.93V48H22.46ZM19.156 44.752H22.544V39.838L19.156 44.752Z" fill="white"/>
<path d="M29.24 16.5825H28.84L25.46 13.2025C25.19 12.9325 24.75 12.9325 24.47 13.2025C24.2 13.4725 24.2 13.9125 24.47 14.1925L26.86 16.5825H17.14L19.53 14.1925C19.8 13.9225 19.8 13.4825 19.53 13.2025C19.26 12.9325 18.82 12.9325 18.54 13.2025L15.17 16.5825H14.77C13.87 16.5825 12 16.5825 12 19.1425C12 20.1125 12.2 20.7525 12.62 21.1725C12.86 21.4225 13.15 21.5525 13.46 21.6225C13.75 21.6925 14.06 21.7025 14.36 21.7025H29.64C29.95 21.7025 30.24 21.6825 30.52 21.6225C31.36 21.4225 32 20.8225 32 19.1425C32 16.5825 30.13 16.5825 29.24 16.5825Z" fill="white"/>
<path d="M29.05 23.0025H14.87C14.25 23.0025 13.78 23.5525 13.88 24.1625L14.72 29.3025C15 31.0225 15.75 33.0025 19.08 33.0025H24.69C28.06 33.0025 28.66 31.3125 29.02 29.4225L30.03 24.1925C30.15 23.5725 29.68 23.0025 29.05 23.0025ZM20.61 29.4525C20.61 29.8425 20.3 30.1525 19.92 30.1525C19.53 30.1525 19.22 29.8425 19.22 29.4525V26.1525C19.22 25.7725 19.53 25.4525 19.92 25.4525C20.3 25.4525 20.61 25.7725 20.61 26.1525V29.4525ZM24.89 29.4525C24.89 29.8425 24.58 30.1525 24.19 30.1525C23.81 30.1525 23.49 29.8425 23.49 29.4525V26.1525C23.49 25.7725 23.81 25.4525 24.19 25.4525C24.58 25.4525 24.89 25.7725 24.89 26.1525V29.4525Z" fill="white"/>
<defs>
<filter id="filter0_d_1_326" x="8" y="33" width="28" height="28" filterUnits="userSpaceOnUse" color-interpolation-filters="sRGB">
<feFlood flood-opacity="0" result="BackgroundImageFix"/>
<feColorMatrix in="SourceAlpha" type="matrix" values="0 0 0 0 0 0 0 0 0 0 0 0 0 0 0 0 0 0 127 0" result="hardAlpha"/>
<feOffset dy="4"/>
<feGaussianBlur stdDeviation="2.5"/>
<feComposite in2="hardAlpha" operator="out"/>
<feColorMatrix type="matrix" values="0 0 0 0 0.5875 0 0 0 0 0.5875 0 0 0 0 0.5875 0 0 0 0.25 0"/>
<feBlend mode="normal" in2="BackgroundImageFix" result="effect1_dropShadow_1_326"/>
<feBlend mode="normal" in="SourceGraphic" in2="effect1_dropShadow_1_326" result="shape"/>
</filter>
</defs>
</svg>
